<svg width="17" height="13" viewBox="0 0 17 13" fill="none" xmlns="http://www.w3.org/2000/svg">
<path fill-rule="evenodd" clip-rule="evenodd" d="M3.22192 0.939453C2.42627 0.939453 1.66321 1.25552 1.1006 1.81813C0.537994 2.38074 0.221924 3.1438 0.221924 3.93945V9.93945C0.221924 10.7351 0.537994 11.4982 1.1006 12.0608C1.66321 12.6234 2.42627 12.9395 3.22192 12.9395H13.2219C14.0176 12.9395 14.7806 12.6234 15.3432 12.0608C15.9059 11.4982 16.2219 10.7351 16.2219 9.93945V3.93945C16.2219 3.1438 15.9059 2.38074 15.3432 1.81813C14.7806 1.25552 14.0176 0.939453 13.2219 0.939453H3.22192ZM2.22192 9.93945V8.93945H7.22192V10.9395H3.22192C2.95671 10.9395 2.70235 10.8341 2.51482 10.6466C2.32728 10.459 2.22192 10.2047 2.22192 9.93945ZM9.22192 10.9395H13.2219C13.4871 10.9395 13.7415 10.8341 13.929 10.6466C14.1166 10.459 14.2219 10.2047 14.2219 9.93945V8.93945H9.22192V10.9395ZM9.22192 6.93945H14.2219V4.93945H9.22192V6.93945ZM7.22192 4.93945H2.22192V6.93945H7.22192V4.93945Z" fill="#B0BABF"/>
</svg>
