<svg width="24" height="24" viewBox="0 0 24 24" fill="none" xmlns="http://www.w3.org/2000/svg">
<path d="M7.00003 0C5.40873 0 3.88261 0.632141 2.75739 1.75736C1.63217 2.88258 1.00003 4.4087 1.00003 6V9.586L0.293031 10.293C0.153222 10.4329 0.0580152 10.611 0.0194476 10.805C-0.0191199 10.9989 0.000683092 11.2 0.0763531 11.3827C0.152023 11.5654 0.280163 11.7215 0.444573 11.8314C0.608982 11.9413 0.802281 12 1.00003 12H13C13.1978 12 13.3911 11.9413 13.5555 11.8314C13.7199 11.7215 13.848 11.5654 13.9237 11.3827C13.9994 11.2 14.0192 10.9989 13.9806 10.805C13.942 10.611 13.8468 10.4329 13.707 10.293L13 9.586V6C13 4.4087 12.3679 2.88258 11.2427 1.75736C10.1175 0.632141 8.59133 0 7.00003 0ZM7.00003 16C6.20438 16 5.44132 15.6839 4.87871 15.1213C4.3161 14.5587 4.00003 13.7956 4.00003 13H10C10 13.7956 9.68396 14.5587 9.12135 15.1213C8.55874 15.6839 7.79568 16 7.00003 16Z" fill="#5B6871"/>
</svg>
